<svg width="50" height="51" viewBox="0 0 50 51" fill="none" xmlns="http://www.w3.org/2000/svg">
<path d="M9.37492 28.8125C10.4166 29.3958 10.7083 30.7083 10.1458 31.6667C9.56242 32.6667 8.33325 33 7.29159 32.4375C4.16659 30.6458 2.08325 27.2708 2.08325 23.4167C2.08325 20.654 3.18072 18.0045 5.13422 16.051C7.08773 14.0975 9.73725 13 12.4999 13C14.5833 8.10417 19.3749 4.66667 24.9999 4.66667C32.1458 4.66667 37.9999 10.2083 38.5416 17.2292L39.5833 17.1667C41.7934 17.1667 43.913 18.0446 45.4758 19.6074C47.0386 21.1702 47.9166 23.2899 47.9166 25.5C47.9166 27.7101 47.0386 29.8298 45.4758 31.3926C43.913 32.9554 41.7934 33.8333 39.5833 33.8333C39.0307 33.8333 38.5008 33.6138 38.1101 33.2231C37.7194 32.8324 37.4999 32.3025 37.4999 31.75C37.4999 31.1975 37.7194 30.6676 38.1101 30.2769C38.5008 29.8862 39.0307 29.6667 39.5833 29.6667C40.6883 29.6667 41.7481 29.2277 42.5295 28.4463C43.3109 27.6649 43.7499 26.6051 43.7499 25.5C43.7499 24.3949 43.3109 23.3351 42.5295 22.5537C41.7481 21.7723 40.6883 21.3333 39.5833 21.3333H35.4166V19.25C35.4166 16.4873 34.3191 13.8378 32.3656 11.8843C30.4121 9.9308 27.7626 8.83333 24.9999 8.83333C19.7916 8.83333 15.5208 12.625 14.7083 17.5625C14.0208 17.3125 13.2708 17.1667 12.4999 17.1667C10.8423 17.1667 9.2526 17.8251 8.0805 18.9972C6.9084 20.1694 6.24992 21.7591 6.24992 23.4167C6.24992 25.7292 7.49992 27.75 9.37492 28.8333V28.8125ZM19.7916 23.4167H26.0416L21.8749 31.75H26.0416L18.2291 46.3333L19.7916 35.9167H14.5833L19.7916 23.4167ZM36.4583 39.3958C36.4583 42.0833 34.3749 44.25 31.7708 44.25C29.1666 44.25 27.0833 42.0833 27.0833 39.3958C27.0833 36.1667 31.7708 30.7083 31.7708 30.7083C31.7708 30.7083 36.4583 36.1667 36.4583 39.3958Z" fill="black"/>
</svg>
