<svg width="50" height="51" viewBox="0 0 50 51" fill="none" xmlns="http://www.w3.org/2000/svg">
<path d="M7.39575 40.2708L10.3333 43.2083L14.0833 39.4792L11.1249 36.5208M24.9999 13C18.1041 13 12.4999 18.6042 12.4999 25.5C12.4999 32.3958 18.1041 38 24.9999 38C31.8958 38 37.4999 32.3958 37.4999 25.5C37.4999 18.5833 31.8958 13 24.9999 13ZM41.6666 27.5833H47.9166V23.4167H41.6666M35.9166 39.4792L39.6666 43.2083L42.6041 40.2708L38.8749 36.5208M42.6041 10.9167L39.6666 8L35.9166 11.7292L38.8749 14.6875M27.0833 2.58333H22.9166V8.83333H27.0833M14.0833 11.7292L10.3333 8L7.39575 10.9167L11.1249 14.6875L14.0833 11.7292ZM2.08325 27.5833H8.33325V23.4167H2.08325M27.0833 42.1667H22.9166V48.4167H27.0833" fill="black"/>
</svg>
