<svg width="51" height="51" viewBox="0 0 51 51" fill="none" xmlns="http://www.w3.org/2000/svg">
<path d="M12.6928 29.7292C13.2453 29.7292 13.7752 29.9487 14.1659 30.3394C14.5566 30.7301 14.7761 31.26 14.7761 31.8125C14.7761 32.9583 13.8386 33.8958 12.6928 33.8958C6.94279 33.8958 2.27612 29.2292 2.27612 23.4792C2.27612 17.7292 6.94279 13.0625 12.6928 13.0625C14.7761 8.16667 19.5678 4.72917 25.1928 4.72917C32.3386 4.72917 38.1928 10.2708 38.7345 17.2917L39.7761 17.2292C41.9863 17.2292 44.1059 18.1071 45.6687 19.6699C47.2315 21.2327 48.1095 23.3524 48.1095 25.5625C48.1095 30.1458 44.3803 33.8958 39.7761 33.8958H37.6928C36.547 33.8958 35.6095 32.9583 35.6095 31.8125C35.6095 30.6458 36.547 29.7292 37.6928 29.7292H39.7761C40.8812 29.7292 41.941 29.2902 42.7224 28.5088C43.5038 27.7274 43.9428 26.6676 43.9428 25.5625C43.9428 24.4574 43.5038 23.3976 42.7224 22.6162C41.941 21.8348 40.8812 21.3958 39.7761 21.3958H35.6095V19.3125C35.6095 13.5625 30.9428 8.89583 25.1928 8.89583C19.9845 8.89583 15.7136 12.6667 14.9011 17.6042C14.2136 17.3542 13.4636 17.2292 12.6928 17.2292C11.0352 17.2292 9.44548 17.8876 8.27337 19.0598C7.10127 20.2319 6.44279 21.8216 6.44279 23.4792C6.44279 25.1368 7.10127 26.7265 8.27337 27.8986C9.44548 29.0707 11.0352 29.7292 12.6928 29.7292ZM25.1928 29.9792C25.5678 30.4792 25.9636 31.0417 26.3595 31.625C27.2761 32.9167 29.3595 35.9792 29.3595 38C29.3595 40.3125 27.4845 42.1667 25.1928 42.1667C24.0877 42.1667 23.0279 41.7277 22.2465 40.9463C21.4651 40.1649 21.0261 39.1051 21.0261 38C21.0261 35.9792 23.1095 32.9167 24.0261 31.625C24.422 31.0417 24.8178 30.5 25.1928 29.9792ZM25.1928 23.4792L24.1511 24.6458C24.1511 24.6458 22.3803 26.6458 20.5886 29.2708C18.797 31.875 16.8595 35 16.8595 38C16.8595 40.2101 17.7374 42.3298 19.3002 43.8926C20.863 45.4554 22.9827 46.3333 25.1928 46.3333C27.4029 46.3333 29.5225 45.4554 31.0853 43.8926C32.6482 42.3298 33.5261 40.2101 33.5261 38C33.5261 35 31.5886 31.875 29.797 29.2708C28.0053 26.6458 26.2345 24.6458 26.2345 24.6458" fill="black"/>
</svg>
